# xmcd CD database file
#
# Track frame offsets:
#	150
#	48230
#	78067
#	88482
#	109574
#	141238
#	154448
#	186317
#	201741
#	238192
#	251694
#	264334
#
# Disc length: 3795 seconds
#
# Revision: 0
# Processed by: cddbd v1.5.2PL0 Copyright (c) Steve Scherf et al.
# Submitted via: CDex 1.70beta2
#
DISCID=ae0ed10c
DTITLE=Various Artist - BEGINNER JAZZ Side B
DYEAR=2012
DGENRE=Jazz
TTITLE0=Blue Train (John Coltrane)
TTITLE1=It Don't Mean A Thing (Dizzy Gillespie And Stan Getz)
TTITLE2=My Funny Valentine (chet Baker)
TTITLE3=In Your Own Sweet Way (Dave Brubeck)
TTITLE4=Django (The Modern Jazz Quartet)
TTITLE5=Straight No Chaser (Thelonious Monk)
TTITLE6=Love For Sale (Cannonball Adderley)
TTITLE7=The Breeze And I (Art Pepper)
TTITLE8=Delilah (Clifford Brown)
TTITLE9=Ornithology (Charlie Parker)
TTITLE10=Minor Swing (Django Reinhardt)
TTITLE11=Mack The knife (Ella Fitzgerald)
EXTD=YEAR: 2012
EXTT0=
EXTT1=
EXTT2=
EXTT3=
EXTT4=
EXTT5=
EXTT6=
EXTT7=
EXTT8=
EXTT9=
EXTT10=
EXTT11=
PLAYORDER=
